<svg width="20" height="20" viewBox="0 0 20 20" fill="none" xmlns="http://www.w3.org/2000/svg">
<g clip-path="url(#clip0_2_1742)">
<path d="M9.99999 19.9999C8.81337 20.0025 7.67343 19.5379 6.82666 18.7066L3.54166 15.6708C2.67069 14.8253 1.97632 13.8152 1.49884 12.6992C1.02136 11.5832 0.770278 10.3835 0.760175 9.16972C0.750071 7.95592 0.981143 6.75219 1.43998 5.62841C1.89882 4.50462 2.57628 3.48315 3.43305 2.62329C4.28983 1.76343 5.30885 1.08229 6.43097 0.619411C7.5531 0.156531 8.75599 -0.0788733 9.96982 -0.0731399C11.1837 -0.0674065 12.3843 0.17935 13.502 0.65281C14.6197 1.12627 15.6322 1.817 16.4808 2.68492C18.1998 4.40399 19.1655 6.73551 19.1655 9.16659C19.1655 11.5977 18.1998 13.9292 16.4808 15.6483L13.155 18.7224C12.3116 19.5457 11.1785 20.0045 9.99999 19.9999ZM9.99999 1.66659C8.51662 1.66657 7.06656 2.10643 5.83318 2.93054C4.5998 3.75465 3.6385 4.926 3.07083 6.29645C2.50317 7.66691 2.35465 9.17492 2.64404 10.6298C2.93343 12.0846 3.64775 13.421 4.69666 14.4699L7.97499 17.4999C8.51727 18.0181 9.23763 18.3086 9.98767 18.3115C10.7377 18.3145 11.4603 18.0296 12.0067 17.5158L15.3267 14.4474C16.7229 13.0387 17.5042 11.1342 17.4997 9.15076C17.4951 7.16733 16.7051 5.26646 15.3025 3.86409C14.6079 3.16537 13.7815 2.61138 12.8714 2.23418C11.9612 1.85698 10.9852 1.66406 9.99999 1.66659ZM9.99999 14.9999C8.84627 14.9999 7.71845 14.6578 6.75916 14.0168C5.79988 13.3759 5.0522 12.4648 4.61069 11.3989C4.16918 10.333 4.05366 9.16012 4.27874 8.02856C4.50382 6.89701 5.05939 5.8576 5.8752 5.0418C6.69101 4.22599 7.73041 3.67042 8.86196 3.44534C9.99352 3.22026 11.1664 3.33578 12.2323 3.77729C13.2982 4.2188 14.2093 4.96647 14.8502 5.92576C15.4912 6.88505 15.8333 8.01286 15.8333 9.16659C15.8316 10.7131 15.2164 12.1958 14.1228 13.2894C13.0293 14.383 11.5465 14.9982 9.99999 14.9999ZM9.99999 4.99992C9.1759 4.99992 8.37032 5.24429 7.68511 5.70213C6.99991 6.15997 6.46586 6.81071 6.15049 7.57207C5.83513 8.33343 5.75261 9.17121 5.91339 9.97946C6.07416 10.7877 6.47099 11.5301 7.05371 12.1129C7.63643 12.6956 8.37886 13.0924 9.18711 13.2532C9.99537 13.414 10.8331 13.3315 11.5945 13.0161C12.3559 12.7007 13.0066 12.1667 13.4644 11.4815C13.9223 10.7963 14.1667 9.99068 14.1667 9.16659C14.1653 8.06192 13.7259 7.00289 12.9448 6.22177C12.1637 5.44066 11.1047 5.00124 9.99999 4.99992ZM11.4225 10.5891C11.5787 10.4328 11.6665 10.2209 11.6665 9.99992C11.6665 9.77895 11.5787 9.56703 11.4225 9.41075L10.8333 8.82159V7.49992C10.8333 7.27891 10.7455 7.06695 10.5892 6.91067C10.433 6.75438 10.221 6.66659 9.99999 6.66659C9.77898 6.66659 9.56702 6.75438 9.41074 6.91067C9.25445 7.06695 9.16666 7.27891 9.16666 7.49992V9.16659C9.1667 9.38758 9.25453 9.59951 9.41082 9.75575L10.2442 10.5891C10.4004 10.7453 10.6124 10.8331 10.8333 10.8331C11.0543 10.8331 11.2662 10.7453 11.4225 10.5891Z" fill="#838589"/>
</g>
<defs>
<clipPath id="clip0_2_1742">
<rect width="20" height="20" fill="white"/>
</clipPath>
</defs>
</svg>
